<?xml version="1.0" encoding="UTF-8"?>
  <svg width="800" height="816" viewBox="0 0 800 816" xmlns="http://www.w3.org/2000/svg">
    <rect width="100%" height="100%" fill="#ffffff"/>
    <path d="                                                                                                                                                                                                                                                                                                                                                                                                                                                                                                                                                                                                                                                                                                                                                                                                                                                                                                                                                                                                                                                                                                                                                                                                   M440 193.17L448.65 193.17L448.65 191.42L440 191.42Z M448 193.17L456.65 193.17L456.65 191.42L448 191.42Z M456 193.17L464.65 193.17L464.65 187.92L456 187.92Z M464 193.17L472.65 193.17L472.65 187.92L464 187.92Z M472 193.17L480.65 193.17L480.65 187.92L472 187.92Z M480 193.17L488.65 193.17L488.65 187.92L480 187.92Z M488 193.17L496.65 193.17L496.65 187.92L488 187.92Z M496 193.17L504.65 193.17L504.65 187.92L496 187.92Z M504 193.17L512.65 193.17L512.65 187.92L504 187.92Z M512 193.17L520.65 193.17L520.65 187.92L512 187.92Z M520 193.17L528.65 193.17L528.65 187.92L520 187.92Z M528 193.17L536.65 193.17L536.65 187.92L528 187.92Z M536 193.17L544.65 193.17L544.65 191.42L536 191.42Z M544 193.17L552.65 193.17L552.65 191.42L544 191.42Z                                                                                    M416 209.17L424.65 209.17L424.65 205.67L416 205.67Z M424 209.17L432.65 209.17L432.65 203.92L424 203.92Z M432 209.17L440.65 209.17L440.65 203.92L432 203.92Z M440 209.17L448.65 209.17L448.65 203.92L440 203.92Z M448 209.17L456.65 209.17L456.65 205.67L448 205.67Z M456 209.17L464.65 209.17L464.65 207.42L456 207.42Z    M488 209.17L496.65 209.17L496.65 207.42L488 207.42Z M496 209.17L504.65 209.17L504.65 202.17L496 202.17Z M504 209.17L512.65 209.17L512.65 198.67L504 198.67Z M512 209.17L520.65 209.17L520.65 202.17L512 202.17Z M520 209.17L528.65 209.17L528.65 198.67L520 198.67Z M528 209.17L536.65 209.17L536.65 195.17L528 195.17Z M536 209.17L544.65 209.17L544.65 195.17L536 195.17Z M544 209.17L552.65 209.17L552.65 195.17L544 195.17Z M552 209.17L560.65 209.17L560.65 198.67L552 198.67Z M560 209.17L568.65 209.17L568.65 200.42L560 200.42Z M568 209.17L576.65 209.17L576.65 205.67L568 205.67Z M576 209.17L584.65 209.17L584.65 207.42L576 207.42Z                                                                              M400 225.17L408.65 225.17L408.65 221.67L400 221.67Z M408 225.17L416.65 225.17L416.65 219.92L408 219.92Z M416 225.17L424.65 225.17L424.65 221.67L416 221.67Z M424 225.17L432.65 225.17L432.65 223.42L424 223.42Z M432 225.17L440.65 225.17L440.65 223.42L432 223.42Z M440 225.17L448.65 225.17L448.65 223.42L440 223.42Z      M488 225.17L496.65 225.17L496.65 223.42L488 223.42Z   M512 225.17L520.65 225.17L520.65 223.42L512 223.42Z M520 225.17L528.65 225.17L528.65 218.17L520 218.17Z M528 225.17L536.65 225.17L536.65 218.17L528 218.17Z M536 225.17L544.65 225.17L544.65 211.17L536 211.17Z M544 225.17L552.65 225.17L552.65 211.17L544 211.17Z M552 225.17L560.65 225.17L560.65 211.17L552 211.17Z M560 225.17L568.65 225.17L568.65 211.17L560 211.17Z M568 225.17L576.65 225.17L576.65 211.17L568 211.17Z M576 225.17L584.65 225.17L584.65 212.92L576 212.92Z M584 225.17L592.65 225.17L592.65 221.67L584 221.67Z                                                                            M392 241.17L400.65 241.17L400.65 237.67L392 237.67Z M400 241.17L408.65 241.17L408.65 234.17L400 234.17Z M408 241.17L416.65 241.17L416.65 239.42L408 239.42Z M416 241.17L424.65 241.17L424.65 237.67L416 237.67Z M424 241.17L432.65 241.17L432.65 235.92L424 235.92Z M432 241.17L440.65 241.17L440.65 234.17L432 234.17Z M440 241.17L448.65 241.17L448.65 234.17L440 234.17Z M448 241.17L456.65 241.17L456.65 235.92L448 235.92Z M456 241.17L464.65 241.17L464.65 237.67L456 237.67Z M464 241.17L472.65 241.17L472.65 239.42L464 239.42Z       M520 241.17L528.65 241.17L528.65 239.42L520 239.42Z M528 241.17L536.65 241.17L536.65 230.67L528 230.67Z M536 241.17L544.65 241.17L544.65 228.92L536 228.92Z M544 241.17L552.65 241.17L552.65 227.17L544 227.17Z M552 241.17L560.65 241.17L560.65 227.17L552 227.17Z M560 241.17L568.65 241.17L568.65 227.17L560 227.17Z M568 241.17L576.65 241.17L576.65 227.17L568 227.17Z M576 241.17L584.65 241.17L584.65 227.17L576 227.17Z M584 241.17L592.65 241.17L592.65 227.17L584 227.17Z                                                                            M392 257.17L400.65 257.17L400.65 248.42L392 248.42Z M400 257.17L408.65 257.17L408.65 255.42L400 255.42Z M408 257.17L416.65 257.17L416.65 255.42L408 255.42Z M416 257.17L424.65 257.17L424.65 250.17L416 250.17Z M424 257.17L432.65 257.17L432.65 243.17L424 243.17Z M432 257.17L440.65 257.17L440.65 251.92L432 251.92Z M440 257.17L448.65 257.17L448.65 251.92L440 251.92Z M448 257.17L456.65 257.17L456.65 244.92L448 244.92Z M456 257.17L464.65 257.17L464.65 251.92L456 251.92Z M464 257.17L472.65 257.17L472.65 251.92L464 251.92Z    M496 257.17L504.65 257.17L504.65 255.42L496 255.42Z   M520 257.17L528.65 257.17L528.65 255.42L520 255.42Z M528 257.17L536.65 257.17L536.65 251.92L528 251.92Z M536 257.17L544.65 257.17L544.65 246.67L536 246.67Z M544 257.17L552.65 257.17L552.65 243.17L544 243.17Z M552 257.17L560.65 257.17L560.65 246.67L552 246.67Z M560 257.17L568.65 257.17L568.65 250.17L560 250.17Z M568 257.17L576.65 257.17L576.65 243.17L568 243.17Z M576 257.17L584.65 257.17L584.65 243.17L576 243.17Z M584 257.17L592.65 257.17L592.65 243.17L584 243.17Z M592 257.17L600.65 257.17L600.65 250.17L592 250.17Z                                                                           M392 273.17L400.65 273.17L400.65 266.17L392 266.17Z  M408 273.17L416.65 273.17L416.65 269.67L408 269.67Z M416 273.17L424.65 273.17L424.65 260.92L416 260.92Z M424 273.17L432.65 273.17L432.65 259.17L424 259.17Z M432 273.17L440.65 273.17L440.65 260.92L432 260.92Z M440 273.17L448.65 273.17L448.65 262.67L440 262.67Z M448 273.17L456.65 273.17L456.65 259.17L448 259.17Z M456 273.17L464.65 273.17L464.65 259.17L456 259.17Z M464 273.17L472.65 273.17L472.65 271.42L464 271.42Z M472 273.17L480.65 273.17L480.65 271.42L472 271.42Z   M496 273.17L504.65 273.17L504.65 271.42L496 271.42Z M504 273.17L512.65 273.17L512.65 271.42L504 271.42Z  M520 273.17L528.65 273.17L528.65 269.67L520 269.67Z M528 273.17L536.65 273.17L536.65 269.67L528 269.67Z M536 273.17L544.65 273.17L544.65 260.92L536 260.92Z M544 273.17L552.65 273.17L552.65 259.17L544 259.17Z M552 273.17L560.65 273.17L560.65 259.17L552 259.17Z M560 273.17L568.65 273.17L568.65 262.67L560 262.67Z M568 273.17L576.65 273.17L576.65 259.17L568 259.17Z M576 273.17L584.65 273.17L584.65 259.17L576 259.17Z M584 273.17L592.65 273.17L592.65 259.17L584 259.17Z M592 273.17L600.65 273.17L600.65 266.17L592 266.17Z                                                                           M392 289.17L400.65 289.17L400.65 282.17L392 282.17Z   M416 289.17L424.65 289.17L424.65 280.42L416 280.42Z M424 289.17L432.65 289.17L432.65 275.17L424 275.17Z M432 289.17L440.65 289.17L440.65 275.17L432 275.17Z M440 289.17L448.65 289.17L448.65 275.17L440 275.17Z M448 289.17L456.65 289.17L456.65 275.17L448 275.17Z M456 289.17L464.65 289.17L464.65 275.17L456 275.17Z  M472 289.17L480.65 289.17L480.65 287.42L472 287.42Z M480 289.17L488.65 289.17L488.65 287.42L480 287.42Z  M496 289.17L504.65 289.17L504.65 283.92L496 283.92Z M504 289.17L512.65 289.17L512.65 282.17L504 282.17Z  M520 289.17L528.65 289.17L528.65 280.42L520 280.42Z M528 289.17L536.65 289.17L536.65 287.42L528 287.42Z M536 289.17L544.65 289.17L544.65 285.67L536 285.67Z M544 289.17L552.65 289.17L552.65 275.17L544 275.17Z M552 289.17L560.65 289.17L560.65 275.17L552 275.17Z M560 289.17L568.65 289.17L568.65 275.17L560 275.17Z M568 289.17L576.65 289.17L576.65 275.17L568 275.17Z M576 289.17L584.65 289.17L584.65 275.17L576 275.17Z M584 289.17L592.65 289.17L592.65 275.17L584 275.17Z M592 289.17L600.65 289.17L600.65 282.17L592 282.17Z                                                                           M392 305.17L400.65 305.17L400.65 296.42L392 296.42Z M400 305.17L408.65 305.17L408.65 303.42L400 303.42Z  M416 305.17L424.65 305.17L424.65 303.42L416 303.42Z M424 305.17L432.65 305.17L432.65 296.42L424 296.42Z M432 305.17L440.65 305.17L440.65 292.92L432 292.92Z M440 305.17L448.65 305.17L448.65 291.17L440 291.17Z M448 305.17L456.65 305.17L456.65 291.17L448 291.17Z M456 305.17L464.65 305.17L464.65 296.42L456 296.42Z          M536 305.17L544.65 305.17L544.65 303.42L536 303.42Z M544 305.17L552.65 305.17L552.65 299.92L544 299.92Z M552 305.17L560.65 305.17L560.65 291.17L552 291.17Z M560 305.17L568.65 305.17L568.65 291.17L560 291.17Z M568 305.17L576.65 305.17L576.65 291.17L568 291.17Z M576 305.17L584.65 305.17L584.65 291.17L576 291.17Z M584 305.17L592.65 305.17L592.65 291.17L584 291.17Z M592 305.17L600.65 305.17L600.65 299.92L592 299.92Z                                                                    M336 321.17L344.65 321.17L344.65 319.42L336 319.42Z M344 321.17L352.65 321.17L352.65 317.67L344 317.67Z M352 321.17L360.65 321.17L360.65 317.67L352 317.67Z M360 321.17L368.65 321.17L368.65 317.67L360 317.67Z M368 321.17L376.65 321.17L376.65 317.67L368 317.67Z M376 321.17L384.65 321.17L384.65 317.67L376 317.67Z M384 321.17L392.65 321.17L392.65 317.67L384 317.67Z M392 321.17L400.65 321.17L400.65 314.17L392 314.17Z M400 321.17L408.65 321.17L408.65 317.67L400 317.67Z      M448 321.17L456.65 321.17L456.65 319.42L448 319.42Z             M552 321.17L560.65 321.17L560.65 319.42L552 319.42Z M560 321.17L568.65 321.17L568.65 315.92L560 315.92Z M568 321.17L576.65 321.17L576.65 315.92L568 315.92Z M576 321.17L584.65 321.17L584.65 314.17L576 314.17Z M584 321.17L592.65 321.17L592.65 308.92L584 308.92Z M592 321.17L600.65 321.17L600.65 319.42L592 319.42Z                                                               M296 337.17L304.65 337.17L304.65 335.42L296 335.42Z M304 337.17L312.65 337.17L312.65 331.92L304 331.92Z M312 337.17L320.65 337.17L320.65 331.92L312 331.92Z M320 337.17L328.65 337.17L328.65 326.67L320 326.67Z M328 337.17L336.65 337.17L336.65 324.92L328 324.92Z M336 337.17L344.65 337.17L344.65 330.17L336 330.17Z M344 337.17L352.65 337.17L352.65 331.92L344 331.92Z M352 337.17L360.65 337.17L360.65 333.67L352 333.67Z M360 337.17L368.65 337.17L368.65 333.67L360 333.67Z M368 337.17L376.65 337.17L376.65 333.67L368 333.67Z M376 337.17L384.65 337.17L384.65 330.17L376 330.17Z M384 337.17L392.65 337.17L392.65 323.17L384 323.17Z M392 337.17L400.65 337.17L400.65 323.17L392 323.17Z M400 337.17L408.65 337.17L408.65 324.92L400 324.92Z M408 337.17L416.65 337.17L416.65 335.42L408 335.42Z M416 337.17L424.65 337.17L424.65 335.42L416 335.42Z M424 337.17L432.65 337.17L432.65 331.92L424 331.92Z M432 337.17L440.65 337.17L440.65 330.17L432 330.17Z M440 337.17L448.65 337.17L448.65 333.67L440 333.67Z M448 337.17L456.65 337.17L456.65 335.42L448 335.42Z M456 337.17L464.65 337.17L464.65 335.42L456 335.42Z M464 337.17L472.65 337.17L472.65 335.42L464 335.42Z M472 337.17L480.65 337.17L480.65 335.42L472 335.42Z M480 337.17L488.65 337.17L488.65 333.67L480 333.67Z M488 337.17L496.65 337.17L496.65 333.67L488 333.67Z M496 337.17L504.65 337.17L504.65 331.92L496 331.92Z M504 337.17L512.65 337.17L512.65 331.92L504 331.92Z M512 337.17L520.65 337.17L520.65 333.67L512 333.67Z M520 337.17L528.65 337.17L528.65 333.67L520 333.67Z M528 337.17L536.65 337.17L536.65 333.67L528 333.67Z M536 337.17L544.65 337.17L544.65 333.67L536 333.67Z M544 337.17L552.65 337.17L552.65 333.67L544 333.67Z M552 337.17L560.65 337.17L560.65 331.92L552 331.92Z M560 337.17L568.65 337.17L568.65 331.92L560 331.92Z M568 337.17L576.65 337.17L576.65 331.92L568 331.92Z M576 337.17L584.65 337.17L584.65 330.17L576 330.17Z M584 337.17L592.65 337.17L592.65 331.92L584 331.92Z                                                             M272 353.17L280.65 353.17L280.65 349.67L272 349.67Z M280 353.17L288.65 353.17L288.65 346.17L280 346.17Z M288 353.17L296.65 353.17L296.65 346.17L288 346.17Z M296 353.17L304.65 353.17L304.65 347.92L296 347.92Z M304 353.17L312.65 353.17L312.65 346.17L304 346.17Z M312 353.17L320.65 353.17L320.65 344.42L312 344.42Z M320 353.17L328.65 353.17L328.65 340.92L320 340.92Z M328 353.17L336.65 353.17L336.65 340.92L328 340.92Z M336 353.17L344.65 353.17L344.65 342.67L336 342.67Z M344 353.17L352.65 353.17L352.65 342.67L344 342.67Z M352 353.17L360.65 353.17L360.65 342.67L352 342.67Z M360 353.17L368.65 353.17L368.65 342.67L360 342.67Z M368 353.17L376.65 353.17L376.65 340.92L368 340.92Z M376 353.17L384.65 353.17L384.65 339.17L376 339.17Z M384 353.17L392.65 353.17L392.65 339.17L384 339.17Z M392 353.17L400.65 353.17L400.65 339.17L392 339.17Z M400 353.17L408.65 353.17L408.65 339.17L400 339.17Z M408 353.17L416.65 353.17L416.65 339.17L408 339.17Z M416 353.17L424.65 353.17L424.65 344.42L416 344.42Z M424 353.17L432.65 353.17L432.65 349.67L424 349.67Z M432 353.17L440.65 353.17L440.65 351.42L432 351.42Z M440 353.17L448.65 353.17L448.65 351.42L440 351.42Z M448 353.17L456.65 353.17L456.65 349.67L448 349.67Z M456 353.17L464.65 353.17L464.65 349.67L456 349.67Z M464 353.17L472.65 353.17L472.65 349.67L464 349.67Z M472 353.17L480.65 353.17L480.65 349.67L472 349.67Z M480 353.17L488.65 353.17L488.65 351.42L480 351.42Z M488 353.17L496.65 353.17L496.65 351.42L488 351.42Z M496 353.17L504.65 353.17L504.65 351.42L496 351.42Z    M528 353.17L536.65 353.17L536.65 351.42L528 351.42Z M536 353.17L544.65 353.17L544.65 349.67L536 349.67Z M544 353.17L552.65 353.17L552.65 347.92L544 347.92Z M552 353.17L560.65 353.17L560.65 351.42L552 351.42Z M560 353.17L568.65 353.17L568.65 347.92L560 347.92Z M568 353.17L576.65 353.17L576.65 346.17L568 346.17Z M576 353.17L584.65 353.17L584.65 349.67L576 349.67Z                                                           M248 369.17L256.65 369.17L256.65 367.42L248 367.42Z M256 369.17L264.65 369.17L264.65 362.17L256 362.17Z M264 369.17L272.65 369.17L272.65 358.67L264 358.67Z M272 369.17L280.65 369.17L280.65 362.17L272 362.17Z M280 369.17L288.65 369.17L288.65 362.17L280 362.17Z M288 369.17L296.65 369.17L296.65 358.67L288 358.67Z M296 369.17L304.65 369.17L304.65 360.42L296 360.42Z M304 369.17L312.65 369.17L312.65 362.17L304 362.17Z M312 369.17L320.65 369.17L320.65 367.42L312 367.42Z      M360 369.17L368.65 369.17L368.65 360.42L360 360.42Z M368 369.17L376.65 369.17L376.65 355.17L368 355.17Z M376 369.17L384.65 369.17L384.65 355.17L376 355.17Z M384 369.17L392.65 369.17L392.65 355.17L384 355.17Z M392 369.17L400.65 369.17L400.65 356.92L392 356.92Z M400 369.17L408.65 369.17L408.65 363.92L400 363.92Z M408 369.17L416.65 369.17L416.65 360.42L408 360.42Z M416 369.17L424.65 369.17L424.65 355.17L416 355.17Z M424 369.17L432.65 369.17L432.65 355.17L424 355.17Z M432 369.17L440.65 369.17L440.65 356.92L432 356.92Z M440 369.17L448.65 369.17L448.65 358.67L440 358.67Z M448 369.17L456.65 369.17L456.65 360.42L448 360.42Z M456 369.17L464.65 369.17L464.65 362.17L456 362.17Z M464 369.17L472.65 369.17L472.65 363.92L464 363.92Z M472 369.17L480.65 369.17L480.65 365.67L472 365.67Z M480 369.17L488.65 369.17L488.65 365.67L480 365.67Z M488 369.17L496.65 369.17L496.65 365.67L488 365.67Z M496 369.17L504.65 369.17L504.65 365.67L496 365.67Z M504 369.17L512.65 369.17L512.65 365.67L504 365.67Z M512 369.17L520.65 369.17L520.65 363.92L512 363.92Z M520 369.17L528.65 369.17L528.65 362.17L520 362.17Z M528 369.17L536.65 369.17L536.65 363.92L528 363.92Z M536 369.17L544.65 369.17L544.65 363.92L536 363.92Z M544 369.17L552.65 369.17L552.65 363.92L544 363.92Z M552 369.17L560.65 369.17L560.65 363.92L552 363.92Z M560 369.17L568.65 369.17L568.65 367.42L560 367.42Z                                                           M232 385.17L240.65 385.17L240.65 383.42L232 383.42Z M240 385.17L248.65 385.17L248.65 378.17L240 378.17Z M248 385.17L256.65 385.17L256.65 376.42L248 376.42Z M256 385.17L264.65 385.17L264.65 378.17L256 378.17Z M264 385.17L272.65 385.17L272.65 374.67L264 374.67Z M272 385.17L280.65 385.17L280.65 371.17L272 371.17Z M280 385.17L288.65 385.17L288.65 374.67L280 374.67Z M288 385.17L296.65 385.17L296.65 383.42L288 383.42Z    M320 385.17L328.65 385.17L328.65 383.42L320 383.42Z  M336 385.17L344.65 385.17L344.65 381.67L336 381.67Z M344 385.17L352.65 385.17L352.65 376.42L344 376.42Z M352 385.17L360.65 385.17L360.65 372.92L352 372.92Z M360 385.17L368.65 385.17L368.65 371.17L360 371.17Z M368 385.17L376.65 385.17L376.65 371.17L368 371.17Z M376 385.17L384.65 385.17L384.65 371.17L376 371.17Z M384 385.17L392.65 385.17L392.65 372.92L384 372.92Z M392 385.17L400.65 385.17L400.65 378.17L392 378.17Z M400 385.17L408.65 385.17L408.65 376.42L400 376.42Z M408 385.17L416.65 385.17L416.65 371.17L408 371.17Z M416 385.17L424.65 385.17L424.65 371.17L416 371.17Z M424 385.17L432.65 385.17L432.65 371.17L424 371.17Z M432 385.17L440.65 385.17L440.65 371.17L432 371.17Z M440 385.17L448.65 385.17L448.65 371.17L440 371.17Z M448 385.17L456.65 385.17L456.65 371.17L448 371.17Z M456 385.17L464.65 385.17L464.65 371.17L456 371.17Z M464 385.17L472.65 385.17L472.65 371.17L464 371.17Z M472 385.17L480.65 385.17L480.65 371.17L472 371.17Z M480 385.17L488.65 385.17L488.65 371.17L480 371.17Z M488 385.17L496.65 385.17L496.65 371.17L488 371.17Z M496 385.17L504.65 385.17L504.65 371.17L496 371.17Z M504 385.17L512.65 385.17L512.65 371.17L504 371.17Z M512 385.17L520.65 385.17L520.65 378.17L512 378.17Z M520 385.17L528.65 385.17L528.65 374.67L520 374.67Z M528 385.17L536.65 385.17L536.65 383.42L528 383.42Z                                                             M216 401.17L224.65 401.17L224.65 399.42L216 399.42Z M224 401.17L232.65 401.17L232.65 395.92L224 395.92Z M232 401.17L240.65 401.17L240.65 390.67L232 390.67Z M240 401.17L248.65 401.17L248.65 399.42L240 399.42Z  M256 401.17L264.65 401.17L264.65 397.67L256 397.67Z M264 401.17L272.65 401.17L272.65 388.92L264 388.92Z M272 401.17L280.65 401.17L280.65 387.17L272 387.17Z M280 401.17L288.65 401.17L288.65 399.42L280 399.42Z   M304 401.17L312.65 401.17L312.65 399.42L304 399.42Z M312 401.17L320.65 401.17L320.65 397.67L312 397.67Z M320 401.17L328.65 401.17L328.65 395.92L320 395.92Z M328 401.17L336.65 401.17L336.65 392.42L328 392.42Z M336 401.17L344.65 401.17L344.65 387.17L336 387.17Z M344 401.17L352.65 401.17L352.65 387.17L344 387.17Z M352 401.17L360.65 401.17L360.65 387.17L352 387.17Z M360 401.17L368.65 401.17L368.65 387.17L360 387.17Z M368 401.17L376.65 401.17L376.65 388.92L368 388.92Z M376 401.17L384.65 401.17L384.65 395.92L376 395.92Z  M392 401.17L400.65 401.17L400.65 394.17L392 394.17Z M400 401.17L408.65 401.17L408.65 387.17L400 387.17Z M408 401.17L416.65 401.17L416.65 387.17L408 387.17Z M416 401.17L424.65 401.17L424.65 392.42L416 392.42Z M424 401.17L432.65 401.17L432.65 390.67L424 390.67Z M432 401.17L440.65 401.17L440.65 388.92L432 388.92Z M440 401.17L448.65 401.17L448.65 387.17L440 387.17Z M448 401.17L456.65 401.17L456.65 387.17L448 387.17Z M456 401.17L464.65 401.17L464.65 387.17L456 387.17Z M464 401.17L472.65 401.17L472.65 388.92L464 388.92Z M472 401.17L480.65 401.17L480.65 394.17L472 394.17Z M480 401.17L488.65 401.17L488.65 395.92L480 395.92Z M488 401.17L496.65 401.17L496.65 392.42L488 392.42Z M496 401.17L504.65 401.17L504.65 392.42L496 392.42Z M504 401.17L512.65 401.17L512.65 397.67L504 397.67Z M512 401.17L520.65 401.17L520.65 395.92L512 395.92Z M520 401.17L528.65 401.17L528.65 387.17L520 387.17Z M528 401.17L536.65 401.17L536.65 392.42L528 392.42Z M536 401.17L544.65 401.17L544.65 394.17L536 394.17Z M544 401.17L552.65 401.17L552.65 399.42L544 399.42Z                                                          M208 417.17L216.65 417.17L216.65 415.42L208 415.42Z M216 417.17L224.65 417.17L224.65 406.67L216 406.67Z M224 417.17L232.65 417.17L232.65 406.67L224 406.67Z M232 417.17L240.65 417.17L240.65 415.42L232 415.42Z  M248 417.17L256.65 417.17L256.65 415.42L248 415.42Z M256 417.17L264.65 417.17L264.65 404.92L256 404.92Z M264 417.17L272.65 417.17L272.65 403.17L264 403.17Z M272 417.17L280.65 417.17L280.65 403.17L272 403.17Z M280 417.17L288.65 417.17L288.65 404.92L280 404.92Z M288 417.17L296.65 417.17L296.65 404.92L288 404.92Z M296 417.17L304.65 417.17L304.65 403.17L296 403.17Z M304 417.17L312.65 417.17L312.65 403.17L304 403.17Z M312 417.17L320.65 417.17L320.65 403.17L312 403.17Z M320 417.17L328.65 417.17L328.65 403.17L320 403.17Z M328 417.17L336.65 417.17L336.65 403.17L328 403.17Z M336 417.17L344.65 417.17L344.65 403.17L336 403.17Z M344 417.17L352.65 417.17L352.65 403.17L344 403.17Z M352 417.17L360.65 417.17L360.65 403.17L352 403.17Z M360 417.17L368.65 417.17L368.65 410.17L360 410.17Z M368 417.17L376.65 417.17L376.65 415.42L368 415.42Z  M384 417.17L392.65 417.17L392.65 415.42L384 415.42Z M392 417.17L400.65 417.17L400.65 404.92L392 404.92Z M400 417.17L408.65 417.17L408.65 404.92L400 404.92Z M408 417.17L416.65 417.17L416.65 415.42L408 415.42Z    M440 417.17L448.65 417.17L448.65 413.67L440 413.67Z M448 417.17L456.65 417.17L456.65 413.67L448 413.67Z M456 417.17L464.65 417.17L464.65 408.42L456 408.42Z M464 417.17L472.65 417.17L472.65 403.17L464 403.17Z M472 417.17L480.65 417.17L480.65 408.42L472 408.42Z M480 417.17L488.65 417.17L488.65 415.42L480 415.42Z M488 417.17L496.65 417.17L496.65 413.67L488 413.67Z M496 417.17L504.65 417.17L504.65 415.42L496 415.42Z M504 417.17L512.65 417.17L512.65 413.67L504 413.67Z M512 417.17L520.65 417.17L520.65 408.42L512 408.42Z M520 417.17L528.65 417.17L528.65 403.17L520 403.17Z M528 417.17L536.65 417.17L536.65 403.17L528 403.17Z M536 417.17L544.65 417.17L544.65 403.17L536 403.17Z M544 417.17L552.65 417.17L552.65 403.17L544 403.17Z M552 417.17L560.65 417.17L560.65 411.92L552 411.92Z                                                        M200 433.17L208.65 433.17L208.65 429.67L200 429.67Z M208 433.17L216.65 433.17L216.65 420.92L208 420.92Z M216 433.17L224.65 433.17L224.65 420.92L216 420.92Z M224 433.17L232.65 433.17L232.65 427.92L224 427.92Z M232 433.17L240.65 433.17L240.65 426.17L232 426.17Z M240 433.17L248.65 433.17L248.65 422.67L240 422.67Z M248 433.17L256.65 433.17L256.65 419.17L248 419.17Z M256 433.17L264.65 433.17L264.65 419.17L256 419.17Z M264 433.17L272.65 433.17L272.65 419.17L264 419.17Z M272 433.17L280.65 433.17L280.65 419.17L272 419.17Z M280 433.17L288.65 433.17L288.65 419.17L280 419.17Z M288 433.17L296.65 433.17L296.65 419.17L288 419.17Z M296 433.17L304.65 433.17L304.65 419.17L296 419.17Z M304 433.17L312.65 433.17L312.65 419.17L304 419.17Z M312 433.17L320.65 433.17L320.65 419.17L312 419.17Z M320 433.17L328.65 433.17L328.65 419.17L320 419.17Z M328 433.17L336.65 433.17L336.65 419.17L328 419.17Z M336 433.17L344.65 433.17L344.65 419.17L336 419.17Z M344 433.17L352.65 433.17L352.65 424.42L344 424.42Z M352 433.17L360.65 433.17L360.65 426.17L352 426.17Z M360 433.17L368.65 433.17L368.65 427.92L360 427.92Z M368 433.17L376.65 433.17L376.65 431.42L368 431.42Z M376 433.17L384.65 433.17L384.65 429.67L376 429.67Z M384 433.17L392.65 433.17L392.65 420.92L384 420.92Z M392 433.17L400.65 433.17L400.65 419.17L392 419.17Z M400 433.17L408.65 433.17L408.65 427.92L400 427.92Z M408 433.17L416.65 433.17L416.65 431.42L408 431.42Z M416 433.17L424.65 433.17L424.65 431.42L416 431.42Z M424 433.17L432.65 433.17L432.65 431.42L424 431.42Z M432 433.17L440.65 433.17L440.65 431.42L432 431.42Z M440 433.17L448.65 433.17L448.65 431.42L440 431.42Z  M456 433.17L464.65 433.17L464.65 431.42L456 431.42Z M464 433.17L472.65 433.17L472.65 424.42L464 424.42Z M472 433.17L480.65 433.17L480.65 419.17L472 419.17Z M480 433.17L488.65 433.17L488.65 422.67L480 422.67Z  M496 433.17L504.65 433.17L504.65 429.67L496 429.67Z M504 433.17L512.65 433.17L512.65 424.42L504 424.42Z M512 433.17L520.65 433.17L520.65 429.67L512 429.67Z M520 433.17L528.65 433.17L528.65 419.17L520 419.17Z M528 433.17L536.65 433.17L536.65 419.17L528 419.17Z M536 433.17L544.65 433.17L544.65 419.17L536 419.17Z M544 433.17L552.65 433.17L552.65 419.17L544 419.17Z M552 433.17L560.65 433.17L560.65 420.92L552 420.92Z M560 433.17L568.65 433.17L568.65 431.42L560 431.42Z                                                    M176 449.17L184.65 449.17L184.65 447.42L176 447.42Z M184 449.17L192.65 449.17L192.65 443.92L184 443.92Z M192 449.17L200.65 449.17L200.65 443.92L192 443.92Z M200 449.17L208.65 449.17L208.65 435.17L200 435.17Z M208 449.17L216.65 449.17L216.65 435.17L208 435.17Z M216 449.17L224.65 449.17L224.65 435.17L216 435.17Z M224 449.17L232.65 449.17L232.65 435.17L224 435.17Z M232 449.17L240.65 449.17L240.65 435.17L232 435.17Z M240 449.17L248.65 449.17L248.65 435.17L240 435.17Z M248 449.17L256.65 449.17L256.65 435.17L248 435.17Z M256 449.17L264.65 449.17L264.65 435.17L256 435.17Z M264 449.17L272.65 449.17L272.65 435.17L264 435.17Z M272 449.17L280.65 449.17L280.65 435.17L272 435.17Z M280 449.17L288.65 449.17L288.65 435.17L280 435.17Z M288 449.17L296.65 449.17L296.65 435.17L288 435.17Z M296 449.17L304.65 449.17L304.65 435.17L296 435.17Z M304 449.17L312.65 449.17L312.65 436.92L304 436.92Z M312 449.17L320.65 449.17L320.65 440.42L312 440.42Z M320 449.17L328.65 449.17L328.65 442.17L320 442.17Z M328 449.17L336.65 449.17L336.65 443.92L328 443.92Z M336 449.17L344.65 449.17L344.65 447.42L336 447.42Z M344 449.17L352.65 449.17L352.65 447.42L344 447.42Z M352 449.17L360.65 449.17L360.65 447.42L352 447.42Z M360 449.17L368.65 449.17L368.65 440.42L360 440.42Z M368 449.17L376.65 449.17L376.65 435.17L368 435.17Z M376 449.17L384.65 449.17L384.65 435.17L376 435.17Z M384 449.17L392.65 449.17L392.65 435.17L384 435.17Z M392 449.17L400.65 449.17L400.65 435.17L392 435.17Z M400 449.17L408.65 449.17L408.65 435.17L400 435.17Z M408 449.17L416.65 449.17L416.65 443.92L408 443.92Z    M440 449.17L448.65 449.17L448.65 447.42L440 447.42Z   M464 449.17L472.65 449.17L472.65 438.67L464 438.67Z M472 449.17L480.65 449.17L480.65 435.17L472 435.17Z M480 449.17L488.65 449.17L488.65 435.17L480 435.17Z M488 449.17L496.65 449.17L496.65 438.67L488 438.67Z M496 449.17L504.65 449.17L504.65 443.92L496 443.92Z M504 449.17L512.65 449.17L512.65 443.92L504 443.92Z M512 449.17L520.65 449.17L520.65 435.17L512 435.17Z M520 449.17L528.65 449.17L528.65 435.17L520 435.17Z M528 449.17L536.65 449.17L536.65 435.17L528 435.17Z M536 449.17L544.65 449.17L544.65 435.17L536 435.17Z M544 449.17L552.65 449.17L552.65 435.17L544 435.17Z M552 449.17L560.65 449.17L560.65 435.17L552 435.17Z M560 449.17L568.65 449.17L568.65 445.67L560 445.67Z                                                    M176 465.17L184.65 465.17L184.65 456.42L176 456.42Z M184 465.17L192.65 465.17L192.65 461.67L184 461.67Z M192 465.17L200.65 465.17L200.65 458.17L192 458.17Z M200 465.17L208.65 465.17L208.65 459.92L200 459.92Z M208 465.17L216.65 465.17L216.65 458.17L208 458.17Z M216 465.17L224.65 465.17L224.65 454.67L216 454.67Z M224 465.17L232.65 465.17L232.65 458.17L224 458.17Z M232 465.17L240.65 465.17L240.65 459.92L232 459.92Z M240 465.17L248.65 465.17L248.65 459.92L240 459.92Z M248 465.17L256.65 465.17L256.65 454.67L248 454.67Z M256 465.17L264.65 465.17L264.65 461.67L256 461.67Z M264 465.17L272.65 465.17L272.65 463.42L264 463.42Z M272 465.17L280.65 465.17L280.65 463.42L272 463.42Z M280 465.17L288.65 465.17L288.65 463.42L280 463.42Z M288 465.17L296.65 465.17L296.65 463.42L288 463.42Z M296 465.17L304.65 465.17L304.65 458.17L296 458.17Z M304 465.17L312.65 465.17L312.65 463.42L304 463.42Z   M328 465.17L336.65 465.17L336.65 463.42L328 463.42Z M336 465.17L344.65 465.17L344.65 459.92L336 459.92Z M344 465.17L352.65 465.17L352.65 456.42L344 456.42Z M352 465.17L360.65 465.17L360.65 456.42L352 456.42Z M360 465.17L368.65 465.17L368.65 458.17L360 458.17Z M368 465.17L376.65 465.17L376.65 463.42L368 463.42Z M376 465.17L384.65 465.17L384.65 458.17L376 458.17Z M384 465.17L392.65 465.17L392.65 452.92L384 452.92Z M392 465.17L400.65 465.17L400.65 451.17L392 451.17Z M400 465.17L408.65 465.17L408.65 451.17L400 451.17Z M408 465.17L416.65 465.17L416.65 458.17L408 458.17Z      M456 465.17L464.65 465.17L464.65 463.42L456 463.42Z M464 465.17L472.65 465.17L472.65 461.67L464 461.67Z M472 465.17L480.65 465.17L480.65 454.67L472 454.67Z M480 465.17L488.65 465.17L488.65 451.17L480 451.17Z M488 465.17L496.65 465.17L496.65 451.17L488 451.17Z M496 465.17L504.65 465.17L504.65 454.67L496 454.67Z M504 465.17L512.65 465.17L512.65 451.17L504 451.17Z M512 465.17L520.65 465.17L520.65 451.17L512 451.17Z M520 465.17L528.65 465.17L528.65 451.17L520 451.17Z M528 465.17L536.65 465.17L536.65 451.17L528 451.17Z M536 465.17L544.65 465.17L544.65 451.17L536 451.17Z M544 465.17L552.65 465.17L552.65 451.17L544 451.17Z M552 465.17L560.65 465.17L560.65 451.17L552 451.17Z M560 465.17L568.65 465.17L568.65 461.67L560 461.67Z                                                   M168 481.17L176.65 481.17L176.65 479.42L168 479.42Z M176 481.17L184.65 481.17L184.65 477.67L176 477.67Z M184 481.17L192.65 481.17L192.65 474.17L184 474.17Z M192 481.17L200.65 481.17L200.65 468.92L192 468.92Z M200 481.17L208.65 481.17L208.65 467.17L200 467.17Z M208 481.17L216.65 481.17L216.65 467.17L208 467.17Z M216 481.17L224.65 481.17L224.65 468.92L216 468.92Z M224 481.17L232.65 481.17L232.65 472.42L224 472.42Z M232 481.17L240.65 481.17L240.65 470.67L232 470.67Z M240 481.17L248.65 481.17L248.65 468.92L240 468.92Z M248 481.17L256.65 481.17L256.65 468.92L248 468.92Z M256 481.17L264.65 481.17L264.65 472.42L256 472.42Z M264 481.17L272.65 481.17L272.65 472.42L264 472.42Z M272 481.17L280.65 481.17L280.65 472.42L272 472.42Z M280 481.17L288.65 481.17L288.65 472.42L280 472.42Z M288 481.17L296.65 481.17L296.65 472.42L288 472.42Z M296 481.17L304.65 481.17L304.65 472.42L296 472.42Z M304 481.17L312.65 481.17L312.65 472.42L304 472.42Z M312 481.17L320.65 481.17L320.65 474.17L312 474.17Z M320 481.17L328.65 481.17L328.65 474.17L320 474.17Z M328 481.17L336.65 481.17L336.65 474.17L328 474.17Z M336 481.17L344.65 481.17L344.65 475.92L336 475.92Z M344 481.17L352.65 481.17L352.65 479.42L344 479.42Z  M360 481.17L368.65 481.17L368.65 477.67L360 477.67Z M368 481.17L376.65 481.17L376.65 477.67L368 477.67Z M376 481.17L384.65 481.17L384.65 477.67L376 477.67Z M384 481.17L392.65 481.17L392.65 479.42L384 479.42Z M392 481.17L400.65 481.17L400.65 479.42L392 479.42Z M400 481.17L408.65 481.17L408.65 475.92L400 475.92Z M408 481.17L416.65 481.17L416.65 474.17L408 474.17Z      M456 481.17L464.65 481.17L464.65 479.42L456 479.42Z M464 481.17L472.65 481.17L472.65 479.42L464 479.42Z M472 481.17L480.65 481.17L480.65 477.67L472 477.67Z M480 481.17L488.65 481.17L488.65 467.17L480 467.17Z M488 481.17L496.65 481.17L496.65 467.17L488 467.17Z M496 481.17L504.65 481.17L504.65 467.17L496 467.17Z M504 481.17L512.65 481.17L512.65 467.17L504 467.17Z M512 481.17L520.65 481.17L520.65 467.17L512 467.17Z M520 481.17L528.65 481.17L528.65 467.17L520 467.17Z M528 481.17L536.65 481.17L536.65 467.17L528 467.17Z M536 481.17L544.65 481.17L544.65 467.17L536 467.17Z M544 481.17L552.65 481.17L552.65 467.17L544 467.17Z M552 481.17L560.65 481.17L560.65 468.92L552 468.92Z M560 481.17L568.65 481.17L568.65 479.42L560 479.42Z                                                 M152 497.17L160.65 497.17L160.65 493.67L152 493.67Z M160 497.17L168.65 497.17L168.65 486.67L160 486.67Z M168 497.17L176.65 497.17L176.65 490.17L168 490.17Z M176 497.17L184.65 497.17L184.65 493.67L176 493.67Z M184 497.17L192.65 497.17L192.65 493.67L184 493.67Z M192 497.17L200.65 497.17L200.65 493.67L192 493.67Z M200 497.17L208.65 497.17L208.65 490.17L200 490.17Z M208 497.17L216.65 497.17L216.65 490.17L208 490.17Z M216 497.17L224.65 497.17L224.65 486.67L216 486.67Z M224 497.17L232.65 497.17L232.65 486.67L224 486.67Z M232 497.17L240.65 497.17L240.65 484.92L232 484.92Z M240 497.17L248.65 497.17L248.65 483.17L240 483.17Z M248 497.17L256.65 497.17L256.65 483.17L248 483.17Z M256 497.17L264.65 497.17L264.65 483.17L256 483.17Z M264 497.17L272.65 497.17L272.65 484.92L264 484.92Z M272 497.17L280.65 497.17L280.65 493.67L272 493.67Z M280 497.17L288.65 497.17L288.65 495.42L280 495.42Z M288 497.17L296.65 497.17L296.65 493.67L288 493.67Z M296 497.17L304.65 497.17L304.65 493.67L296 493.67Z     M336 497.17L344.65 497.17L344.65 495.42L336 495.42Z M344 497.17L352.65 497.17L352.65 493.67L344 493.67Z M352 497.17L360.65 497.17L360.65 493.67L352 493.67Z M360 497.17L368.65 497.17L368.65 495.42L360 495.42Z M368 497.17L376.65 497.17L376.65 495.42L368 495.42Z M376 497.17L384.65 497.17L384.65 495.42L376 495.42Z M384 497.17L392.65 497.17L392.65 490.17L384 490.17Z M392 497.17L400.65 497.17L400.65 490.17L392 490.17Z M400 497.17L408.65 497.17L408.65 491.92L400 491.92Z M408 497.17L416.65 497.17L416.65 488.42L408 488.42Z M416 497.17L424.65 497.17L424.65 495.42L416 495.42Z     M456 497.17L464.65 497.17L464.65 495.42L456 495.42Z M464 497.17L472.65 497.17L472.65 490.17L464 490.17Z M472 497.17L480.65 497.17L480.65 490.17L472 490.17Z M480 497.17L488.65 497.17L488.65 484.92L480 484.92Z M488 497.17L496.65 497.17L496.65 483.17L488 483.17Z M496 497.17L504.65 497.17L504.65 483.17L496 483.17Z M504 497.17L512.65 497.17L512.65 483.17L504 483.17Z M512 497.17L520.65 497.17L520.65 483.17L512 483.17Z M520 497.17L528.65 497.17L528.65 483.17L520 483.17Z M528 497.17L536.65 497.17L536.65 483.17L528 483.17Z M536 497.17L544.65 497.17L544.65 483.17L536 483.17Z M544 497.17L552.65 497.17L552.65 483.17L544 483.17Z M552 497.17L560.65 497.17L560.65 483.17L552 483.17Z                                                  M152 513.17L160.65 513.17L160.65 504.42L152 504.42Z M160 513.17L168.65 513.17L168.65 506.17L160 506.17Z M168 513.17L176.65 513.17L176.65 509.67L168 509.67Z M176 513.17L184.65 513.17L184.65 507.92L176 507.92Z M184 513.17L192.65 513.17L192.65 509.67L184 509.67Z M192 513.17L200.65 513.17L200.65 504.42L192 504.42Z M200 513.17L208.65 513.17L208.65 507.92L200 507.92Z M208 513.17L216.65 513.17L216.65 511.42L208 511.42Z M216 513.17L224.65 513.17L224.65 511.42L216 511.42Z  M232 513.17L240.65 513.17L240.65 511.42L232 511.42Z M240 513.17L248.65 513.17L248.65 506.17L240 506.17Z M248 513.17L256.65 513.17L256.65 499.17L248 499.17Z M256 513.17L264.65 513.17L264.65 499.17L256 499.17Z M264 513.17L272.65 513.17L272.65 499.17L264 499.17Z M272 513.17L280.65 513.17L280.65 500.92L272 500.92Z M280 513.17L288.65 513.17L288.65 506.17L280 506.17Z M288 513.17L296.65 513.17L296.65 506.17L288 506.17Z M296 513.17L304.65 513.17L304.65 504.42L296 504.42Z M304 513.17L312.65 513.17L312.65 506.17L304 506.17Z M312 513.17L320.65 513.17L320.65 507.92L312 507.92Z M320 513.17L328.65 513.17L328.65 506.17L320 506.17Z M328 513.17L336.65 513.17L336.65 504.42L328 504.42Z M336 513.17L344.65 513.17L344.65 502.67L336 502.67Z M344 513.17L352.65 513.17L352.65 500.92L344 500.92Z M352 513.17L360.65 513.17L360.65 500.92L352 500.92Z M360 513.17L368.65 513.17L368.65 500.92L360 500.92Z M368 513.17L376.65 513.17L376.65 504.42L368 504.42Z M376 513.17L384.65 513.17L384.65 506.17L376 506.17Z M384 513.17L392.65 513.17L392.65 507.92L384 507.92Z M392 513.17L400.65 513.17L400.65 504.42L392 504.42Z M400 513.17L408.65 513.17L408.65 506.17L400 506.17Z M408 513.17L416.65 513.17L416.65 504.42L408 504.42Z M416 513.17L424.65 513.17L424.65 507.92L416 507.92Z M424 513.17L432.65 513.17L432.65 511.42L424 511.42Z    M456 513.17L464.65 513.17L464.65 511.42L456 511.42Z M464 513.17L472.65 513.17L472.65 507.92L464 507.92Z M472 513.17L480.65 513.17L480.65 507.92L472 507.92Z M480 513.17L488.65 513.17L488.65 500.92L480 500.92Z M488 513.17L496.65 513.17L496.65 499.17L488 499.17Z M496 513.17L504.65 513.17L504.65 499.17L496 499.17Z M504 513.17L512.65 513.17L512.65 504.42L504 504.42Z M512 513.17L520.65 513.17L520.65 502.67L512 502.67Z M520 513.17L528.65 513.17L528.65 502.67L520 502.67Z M528 513.17L536.65 513.17L536.65 502.67L528 502.67Z M536 513.17L544.65 513.17L544.65 502.67L536 502.67Z M544 513.17L552.65 513.17L552.65 502.67L544 502.67Z M552 513.17L560.65 513.17L560.65 507.92L552 507.92Z                                                  M152 529.17L160.65 529.17L160.65 527.42L152 527.42Z M160 529.17L168.65 529.17L168.65 525.67L160 525.67Z M168 529.17L176.65 529.17L176.65 523.92L168 523.92Z M176 529.17L184.65 529.17L184.65 522.17L176 522.17Z M184 529.17L192.65 529.17L192.65 520.42L184 520.42Z M192 529.17L200.65 529.17L200.65 522.17L192 522.17Z M200 529.17L208.65 529.17L208.65 523.92L200 523.92Z M208 529.17L216.65 529.17L216.65 522.17L208 522.17Z M216 529.17L224.65 529.17L224.65 522.17L216 522.17Z M224 529.17L232.65 529.17L232.65 523.92L224 523.92Z M232 529.17L240.65 529.17L240.65 523.92L232 523.92Z M240 529.17L248.65 529.17L248.65 522.17L240 522.17Z M248 529.17L256.65 529.17L256.65 525.67L248 525.67Z M256 529.17L264.65 529.17L264.65 525.67L256 525.67Z M264 529.17L272.65 529.17L272.65 527.42L264 527.42Z                  M408 529.17L416.65 529.17L416.65 527.42L408 527.42Z M416 529.17L424.65 529.17L424.65 523.92L416 523.92Z M424 529.17L432.65 529.17L432.65 522.17L424 522.17Z M432 529.17L440.65 529.17L440.65 522.17L432 522.17Z M440 529.17L448.65 529.17L448.65 523.92L440 523.92Z M448 529.17L456.65 529.17L456.65 522.17L448 522.17Z M456 529.17L464.65 529.17L464.65 520.42L456 520.42Z M464 529.17L472.65 529.17L472.65 522.17L464 522.17Z M472 529.17L480.65 529.17L480.65 518.67L472 518.67Z M480 529.17L488.65 529.17L488.65 518.67L480 518.67Z M488 529.17L496.65 529.17L496.65 518.67L488 518.67Z M496 529.17L504.65 529.17L504.65 522.17L496 522.17Z                                                                                                                                                                                                                                                                                                                                                                                                                                                                                                                                                                                                                                                                                                                                                                                                                                                                                                                                                                                                                                                                                                                                                                                                                                                                                                                                                                                                                                                                                                                                                                                                                                                                                                                                                                                                          " fill="#ff4013"/>
  </svg>